 <svg version="1.0" xmlns="http://www.w3.org/2000/svg" width="700.000000pt" height="700.000000pt" viewBox="0 0 700.000000 700.000000" preserveAspectRatio="xMidYMid meet">
<metadata>
Created by potrace 1.12, written by Peter Selinger 2001-2015
</metadata>
<g transform="translate(0.000000,700.000000) scale(0.100000,-0.100000)" fill="#000000" stroke="none">
<path d="M3400 6554 c-193 -20 -313 -43 -419 -84 -42 -15 -85 -31 -97 -34 -43
-13 -243 -134 -335 -204 -220 -166 -405 -429 -494 -702 -23 -69 -36 -92 -71
-125 -23 -22 -45 -54 -49 -70 -15 -66 -23 -81 -53 -95 -60 -29 -61 -34 -62
-271 0 -211 0 -216 23 -235 12 -11 34 -25 48 -31 19 -8 28 -22 34 -49 19 -104
76 -154 177 -154 74 0 111 24 146 93 23 45 23 48 20 395 l-3 350 -33 41 -33
41 21 63 c23 64 105 234 145 297 39 61 140 182 201 241 82 78 262 195 368 241
200 85 335 112 561 112 161 -1 176 -3 285 -34 241 -68 352 -119 494 -225 207
-155 362 -370 440 -610 31 -94 32 -112 9 -145 -16 -23 -18 -58 -18 -385 0
-335 1 -362 19 -391 19 -32 89 -84 113 -84 9 0 13 -16 13 -50 0 -41 -5 -55
-32 -86 -27 -31 -34 -48 -38 -98 l-5 -61 -110 0 -110 0 -3 355 c-1 195 0 365
3 376 2 12 23 46 45 75 22 29 40 57 40 61 0 5 -20 28 -45 51 -44 42 -45 45
-45 104 0 138 -65 350 -154 500 -76 127 -224 270 -369 355 -119 69 -182 92
-395 139 -54 12 -244 12 -291 0 -20 -5 -61 -15 -91 -21 -260 -55 -506 -226
-657 -457 -29 -44 -53 -84 -53 -87 0 -3 -11 -29 -24 -58 -53 -118 -77 -220
-92 -379 -5 -63 -8 -69 -45 -98 -38 -31 -50 -63 -28 -77 6 -3 24 -27 40 -52
l29 -46 0 -373 0 -374 -107 3 -108 3 -6 63 c-5 53 -11 69 -36 94 -26 26 -35
29 -66 23 -20 -4 -48 -19 -62 -33 l-26 -26 4 -200 c6 -269 25 -363 113 -585
143 -356 447 -660 804 -801 127 -51 324 -100 398 -100 72 0 72 -1 72 -193 0
-95 -3 -182 -6 -193 -5 -20 -14 -22 -127 -27 -173 -8 -247 -41 -316 -140 -29
-43 -65 -153 -55 -169 7 -10 1171 -11 1178 0 8 13 -13 95 -36 137 -41 77 -75
111 -140 140 -56 26 -77 29 -190 33 l-128 4 0 199 0 198 38 6 c176 26 264 46
369 81 88 29 237 105 334 170 173 116 413 388 487 554 77 171 115 296 151 486
6 33 11 137 11 230 l0 170 -30 29 c-28 26 -30 34 -25 70 10 64 13 70 46 89 42
25 88 92 96 139 5 31 11 41 34 49 16 5 38 25 49 43 18 29 20 49 20 222 0 222
-8 254 -65 273 -26 8 -35 17 -35 33 -1 59 -57 137 -118 162 -19 8 -31 29 -53
99 -71 216 -241 476 -411 628 -98 87 -264 201 -351 242 -138 64 -170 75 -302
107 -120 28 -345 51 -425 43z m-380 -1392 c65 -15 153 -49 191 -75 42 -28 61
-99 56 -203 -5 -89 -38 -161 -103 -226 -67 -68 -132 -90 -259 -92 -90 -1 -106
2 -155 26 -131 64 -189 149 -197 292 -8 128 28 203 124 255 69 36 233 47 343
23z m1218 0 c70 -16 133 -61 161 -117 23 -43 26 -62 26 -145 0 -82 -4 -102
-25 -144 -39 -77 -92 -130 -162 -162 -58 -27 -72 -29 -173 -28 -92 1 -118 4
-159 23 -55 26 -131 92 -151 132 -46 89 -58 211 -30 305 15 51 22 57 115 97
119 51 276 66 398 39z m-1723 -87 c0 -16 -8 -21 -44 -23 -48 -4 -67 8 -57 33
4 12 17 15 53 13 40 -3 48 -6 48 -23z m2046 9 c18 -22 -3 -34 -58 -34 -35 0
-43 3 -43 18 0 10 3 22 7 25 13 13 81 7 94 -9z m-957 -56 c2 -7 8 -56 13 -109
17 -178 99 -301 249 -375 97 -49 194 -62 295 -41 86 17 202 68 222 98 11 14
16 16 20 7 2 -7 1 -166 -4 -353 -7 -327 -9 -343 -34 -425 -60 -193 -71 -204
-270 -272 -55 -19 -134 -40 -175 -47 -41 -7 -94 -17 -117 -22 -23 -5 -68 -9
-100 -9 -55 0 -59 2 -71 30 -8 17 -30 43 -50 58 -29 22 -46 27 -92 27 -47 -1
-64 -6 -95 -29 -21 -16 -46 -49 -57 -74 -18 -40 -19 -49 -7 -91 17 -62 32 -83
78 -109 42 -24 94 -28 138 -11 36 13 93 68 93 90 0 26 20 36 90 43 157 15 254
36 368 76 47 17 86 30 88 30 14 0 -2 -27 -38 -66 -220 -238 -571 -342 -877
-258 -31 9 -70 19 -87 23 -58 15 -194 93 -267 155 -140 117 -247 269 -294 419
-31 99 -38 182 -48 552 l-7 280 28 -26 c101 -93 330 -132 464 -80 91 36 174
99 218 166 67 103 82 151 82 260 0 45 3 85 7 88 3 4 57 7 120 7 82 0 115 -3
117 -12z m-1177 -1053 c3 -34 19 -119 34 -185 11 -47 13 -50 53 -143 14 -32
26 -60 26 -63 0 -3 25 -45 56 -92 146 -224 397 -397 654 -452 30 -6 71 -16 91
-21 47 -12 237 -12 291 0 214 47 281 72 407 147 174 103 334 278 408 445 13
30 58 84 124 151 57 57 120 127 139 156 19 28 38 52 43 52 14 0 7 -101 -13
-173 -33 -122 -36 -131 -90 -243 -58 -119 -93 -173 -184 -279 -129 -149 -213
-216 -400 -316 -280 -148 -595 -179 -936 -90 -175 45 -405 182 -545 325 -118
120 -183 208 -245 333 -77 156 -116 280 -127 409 l-6 75 109 -3 109 -3 2 -30z
m2247 26 c6 -9 -80 -136 -113 -165 -12 -11 -24 -16 -28 -13 -5 6 12 139 23
175 4 14 110 17 118 3z"></path>
<path d="M3295 4183 c-16 -8 -52 -35 -80 -58 -106 -89 -216 -140 -288 -133
-43 4 -49 40 -12 78 31 32 20 46 -20 26 -40 -21 -45 -33 -45 -108 0 -58 4 -71
27 -99 45 -53 114 -79 212 -79 46 0 102 5 125 11 22 6 59 15 81 21 57 15 83
28 143 71 l54 39 21 -20 c39 -35 120 -82 143 -82 13 0 25 -4 28 -9 9 -14 93
-24 201 -25 88 -1 106 2 149 24 77 39 96 69 96 150 0 67 -1 70 -35 96 -22 16
-41 24 -52 20 -14 -6 -11 -11 16 -34 44 -37 41 -76 -6 -80 -72 -7 -171 39
-303 143 -25 19 -58 42 -74 50 -39 20 -117 19 -155 -2 -30 -17 -32 -17 -62 0
-38 21 -123 22 -164 0z"></path>
<path d="M4180 1075 l0 -375 105 0 105 0 0 195 0 194 38 10 c49 14 75 14 95
-1 14 -11 17 -39 19 -203 l3 -190 105 0 105 0 -3 221 c-1 122 -6 241 -10 265
-6 40 -12 46 -52 66 -77 38 -177 28 -247 -23 -17 -13 -36 -24 -42 -24 -6 0
-11 45 -13 118 l-3 117 -102 3 -103 3 0 -376z"></path>
<path d="M5450 1401 c-109 -24 -191 -87 -233 -180 -19 -39 -22 -65 -22 -176 0
-115 3 -136 24 -182 43 -97 125 -152 260 -173 138 -23 268 13 337 94 65 75 86
143 86 279 0 166 -48 260 -159 313 -47 22 -73 27 -157 30 -56 2 -117 0 -136
-5z m172 -168 c37 -41 48 -84 48 -192 0 -112 -24 -176 -74 -200 -44 -21 -105
-4 -132 36 -27 40 -38 156 -25 266 12 101 25 117 101 117 49 0 60 -4 82 -27z"></path>
<path d="M1239 1386 c-76 -23 -119 -96 -119 -199 0 -119 55 -180 205 -227 71
-22 115 -51 115 -76 0 -40 -30 -47 -143 -34 -56 7 -118 10 -137 8 l-35 -3 -7
-65 c-4 -36 -3 -69 1 -73 15 -15 182 -29 282 -24 69 4 107 11 135 25 105 54
151 176 105 278 -33 72 -58 89 -245 160 -53 21 -73 42 -63 69 6 15 21 16 134
14 l127 -3 9 39 c14 68 6 108 -23 116 -41 11 -302 8 -341 -5z"></path>
<path d="M4865 1387 c-3 -6 -4 -163 -3 -347 l3 -335 110 0 110 0 3 348 2 347
-110 0 c-80 0 -112 -4 -115 -13z"></path>
<path d="M2055 1268 c-16 -6 -48 -24 -69 -41 -22 -17 -41 -27 -43 -21 -20 56
-25 59 -108 59 l-80 0 -3 -375 -2 -375 92 3 c51 2 98 5 105 7 8 3 13 33 15 87
l3 83 95 7 c107 7 159 19 195 42 51 33 79 144 74 291 -5 129 -31 188 -99 222
-49 24 -123 29 -175 11z m34 -162 c13 -14 16 -38 16 -127 0 -98 -2 -112 -19
-125 -24 -17 -97 -19 -114 -2 -17 17 -17 249 1 267 16 17 94 8 116 -13z"></path>
<path d="M2580 1265 c-115 -32 -134 -50 -166 -154 -19 -62 -18 -206 2 -263 42
-126 189 -186 380 -155 103 17 144 31 144 49 0 7 -6 35 -13 62 l-13 50 -126 0
c-110 1 -129 3 -147 20 -12 11 -21 29 -19 40 3 20 10 21 167 24 l164 3 -7 95
c-10 142 -50 203 -152 232 -52 15 -155 13 -214 -3z m152 -142 c10 -9 18 -30
18 -48 0 -32 -1 -32 -57 -38 -71 -7 -87 3 -79 52 3 19 11 38 18 43 22 14 81 9
100 -9z"></path>
<path d="M3195 1268 c-65 -16 -123 -46 -139 -71 -30 -45 -46 -121 -46 -220 0
-180 62 -259 228 -287 82 -14 268 10 303 40 4 3 1 32 -5 65 l-13 60 -105 -4
c-63 -2 -120 2 -141 8 -36 12 -67 55 -51 71 5 5 81 11 169 12 l160 3 -3 85
c-3 117 -36 184 -106 219 -56 28 -180 37 -251 19z m147 -145 c24 -22 24 -69
-1 -83 -22 -11 -80 -13 -105 -4 -19 7 -22 74 -4 92 18 18 88 15 110 -5z"></path>
<path d="M3800 1266 c-108 -25 -137 -50 -167 -147 -23 -72 -23 -239 0 -290 23
-51 63 -96 100 -113 45 -20 119 -36 164 -36 46 0 186 24 203 35 13 8 5 101
-11 121 -5 6 -33 9 -69 6 -84 -6 -147 13 -171 52 -23 38 -26 141 -5 191 l15
34 112 3 112 3 13 65 c9 39 10 68 4 74 -14 14 -238 16 -300 2z"></path>
</g>
</svg>